<?xml version="1.0" encoding="utf-8"?>
<!-- Generator: Adobe Illustrator 16.0.0, SVG Export Plug-In . SVG Version: 6.00 Build 0)  -->
<!DOCTYPE svg PUBLIC "-//W3C//DTD SVG 1.1//EN" "http://www.w3.org/Graphics/SVG/1.1/DTD/svg11.dtd">
<svg version="1.1" id="Ebene_1" xmlns="http://www.w3.org/2000/svg" xmlns:xlink="http://www.w3.org/1999/xlink" x="0px" y="0px"
	 width="192px" height="192px" viewBox="0 0 192 192" style="enable-background:new 0 0 192 192;" xml:space="preserve">
<g>
	<defs>
		<rect id="SVGID_1_" width="192" height="192"/>
	</defs>
	<clipPath id="SVGID_2_">
		<use xlink:href="#SVGID_1_"  style="overflow:visible;"/>
	</clipPath>
	<path style="clip-path:url(#SVGID_2_);fill:#282828;" d="M180.3,53.4c-2-7.6-8-13.6-15.6-15.7C151,34,96,34,96,34s-55,0-68.8,3.7
		c-7.6,2-13.5,8-15.6,15.7C8,67.2,8,96,8,96s0,28.8,3.7,42.6c2,7.6,8,13.6,15.6,15.7C41,158,96,158,96,158s55,0,68.8-3.7
		c7.6-2,13.5-8,15.6-15.7C184,124.8,184,96,184,96S184,67.2,180.3,53.4"/>
	<polygon style="clip-path:url(#SVGID_2_);fill:#FFFFFF;" points="78,122.2 124,96 78,69.8 	"/>
</g>
</svg>
